<svg xmlns="http://www.w3.org/2000/svg" width="1140" height="680" viewBox="0 0 1140 680">
<rect x="0" y="0" width="100%" height="100%" fill="#ffffff"/>
<text x="60" y="60" font-family="Helvetica, Arial, sans-serif" font-size="28" fill="#222222">Demo 1 Key Metrics</text>
<text x="60" y="125" font-family="Helvetica, Arial, sans-serif" font-size="18" fill="#222222">Risky Route Rate</text>
<text x="140.0" y="98.0" font-family="Helvetica, Arial, sans-serif" font-size="16" fill="#333333">Clean</text>
<rect x="140.0" y="110.0" width="250" height="20" rx="8" fill="#efefef"/>
<rect x="140.0" y="110.0" width="0.0" height="20" rx="8" fill="#1b7f6b"/>
<text x="404.0" y="125.0" font-family="Helvetica, Arial, sans-serif" font-size="16" fill="#222222">0.000</text>
<text x="460.0" y="98.0" font-family="Helvetica, Arial, sans-serif" font-size="16" fill="#333333">Injected</text>
<rect x="460.0" y="110.0" width="250" height="20" rx="8" fill="#efefef"/>
<rect x="460.0" y="110.0" width="250.0" height="20" rx="8" fill="#d04b36"/>
<text x="724.0" y="125.0" font-family="Helvetica, Arial, sans-serif" font-size="16" fill="#222222">1.000</text>
<text x="780.0" y="98.0" font-family="Helvetica, Arial, sans-serif" font-size="16" fill="#333333">Repaired</text>
<rect x="780.0" y="110.0" width="250" height="20" rx="8" fill="#efefef"/>
<rect x="780.0" y="110.0" width="0.0" height="20" rx="8" fill="#1f5aa6"/>
<text x="1044.0" y="125.0" font-family="Helvetica, Arial, sans-serif" font-size="16" fill="#222222">0.000</text>
<text x="60" y="245" font-family="Helvetica, Arial, sans-serif" font-size="18" fill="#222222">W_CR</text>
<text x="140.0" y="218.0" font-family="Helvetica, Arial, sans-serif" font-size="16" fill="#333333">Clean</text>
<rect x="140.0" y="230.0" width="250" height="20" rx="8" fill="#efefef"/>
<rect x="140.0" y="230.0" width="2.6" height="20" rx="8" fill="#1b7f6b"/>
<text x="404.0" y="245.0" font-family="Helvetica, Arial, sans-serif" font-size="16" fill="#222222">0.010</text>
<text x="460.0" y="218.0" font-family="Helvetica, Arial, sans-serif" font-size="16" fill="#333333">Injected</text>
<rect x="460.0" y="230.0" width="250" height="20" rx="8" fill="#efefef"/>
<rect x="460.0" y="230.0" width="179.5" height="20" rx="8" fill="#d04b36"/>
<text x="724.0" y="245.0" font-family="Helvetica, Arial, sans-serif" font-size="16" fill="#222222">0.718</text>
<text x="780.0" y="218.0" font-family="Helvetica, Arial, sans-serif" font-size="16" fill="#333333">Repaired</text>
<rect x="780.0" y="230.0" width="250" height="20" rx="8" fill="#efefef"/>
<rect x="780.0" y="230.0" width="2.9" height="20" rx="8" fill="#1f5aa6"/>
<text x="1044.0" y="245.0" font-family="Helvetica, Arial, sans-serif" font-size="16" fill="#222222">0.012</text>
<text x="60" y="365" font-family="Helvetica, Arial, sans-serif" font-size="18" fill="#222222">Min Distance</text>
<text x="140.0" y="338.0" font-family="Helvetica, Arial, sans-serif" font-size="16" fill="#333333">Clean</text>
<rect x="140.0" y="350.0" width="250" height="20" rx="8" fill="#efefef"/>
<rect x="140.0" y="350.0" width="76.8" height="20" rx="8" fill="#1b7f6b"/>
<text x="404.0" y="365.0" font-family="Helvetica, Arial, sans-serif" font-size="16" fill="#222222">0.368</text>
<text x="460.0" y="338.0" font-family="Helvetica, Arial, sans-serif" font-size="16" fill="#333333">Injected</text>
<rect x="460.0" y="350.0" width="250" height="20" rx="8" fill="#efefef"/>
<rect x="460.0" y="350.0" width="14.0" height="20" rx="8" fill="#d04b36"/>
<text x="724.0" y="365.0" font-family="Helvetica, Arial, sans-serif" font-size="16" fill="#222222">0.067</text>
<text x="780.0" y="338.0" font-family="Helvetica, Arial, sans-serif" font-size="16" fill="#333333">Repaired</text>
<rect x="780.0" y="350.0" width="250" height="20" rx="8" fill="#efefef"/>
<rect x="780.0" y="350.0" width="75.9" height="20" rx="8" fill="#1f5aa6"/>
<text x="1044.0" y="365.0" font-family="Helvetica, Arial, sans-serif" font-size="16" fill="#222222">0.364</text>
<text x="60" y="485" font-family="Helvetica, Arial, sans-serif" font-size="18" fill="#222222">Near-Violation Ratio</text>
<text x="140.0" y="458.0" font-family="Helvetica, Arial, sans-serif" font-size="16" fill="#333333">Clean</text>
<rect x="140.0" y="470.0" width="250" height="20" rx="8" fill="#efefef"/>
<rect x="140.0" y="470.0" width="13.9" height="20" rx="8" fill="#1b7f6b"/>
<text x="404.0" y="485.0" font-family="Helvetica, Arial, sans-serif" font-size="16" fill="#222222">0.056</text>
<text x="460.0" y="458.0" font-family="Helvetica, Arial, sans-serif" font-size="16" fill="#333333">Injected</text>
<rect x="460.0" y="470.0" width="250" height="20" rx="8" fill="#efefef"/>
<rect x="460.0" y="470.0" width="144.7" height="20" rx="8" fill="#d04b36"/>
<text x="724.0" y="485.0" font-family="Helvetica, Arial, sans-serif" font-size="16" fill="#222222">0.579</text>
<text x="780.0" y="458.0" font-family="Helvetica, Arial, sans-serif" font-size="16" fill="#333333">Repaired</text>
<rect x="780.0" y="470.0" width="250" height="20" rx="8" fill="#efefef"/>
<rect x="780.0" y="470.0" width="13.9" height="20" rx="8" fill="#1f5aa6"/>
<text x="1044.0" y="485.0" font-family="Helvetica, Arial, sans-serif" font-size="16" fill="#222222">0.056</text>
</svg>