<svg xmlns="http://www.w3.org/2000/svg" width="1220" height="680" viewBox="0 0 1220 680">
<rect x="0" y="0" width="100%" height="100%" fill="#f7f5ef"/>
<text x="58" y="64" font-family="Trebuchet MS, Avenir Next, sans-serif" font-size="32" fill="#1f2933">Same-Seed Shifted Overlay</text>
<text x="58" y="100" font-family="Trebuchet MS, Avenir Next, sans-serif" font-size="18" fill="#5f6b76">Seed 101 under the shifted family: clean and repaired stay high through the gate, while injected drifts into the squeeze zone.</text>
<rect x="56.0" y="134.0" width="1108.0" height="474.0" rx="28" fill="#fffdfa" stroke="#d8d0c4" stroke-width="2"/>
<rect x="56.0" y="134.0" width="1108.0" height="474.0" rx="30" fill="#fffdf8" stroke="#d6cfc5" stroke-width="2"/>
<rect x="68.0" y="146.0" width="1084.0" height="450.0" rx="24" fill="#fbf7ef" stroke="none"/>
<polygon points="511.6,362.5 655.4,366.7 700.9,324.1 647.9,277.3 526.7,285.8 488.9,332.7" fill="#ff9a62" opacity="0.22" stroke="#d85f25" stroke-width="2.5" stroke-dasharray="10 8"/>
<rect x="413.1" y="362.5" width="60.6" height="80.9" rx="10" fill="#d8d3cc" stroke="#7d766d" stroke-width="1.8"/>
<rect x="564.6" y="366.7" width="68.1" height="89.5" rx="10" fill="#d8d3cc" stroke="#7d766d" stroke-width="1.8"/>
<rect x="564.6" y="226.2" width="68.1" height="85.2" rx="10" fill="#d8d3cc" stroke="#7d766d" stroke-width="1.8"/>
<rect x="697.1" y="294.3" width="75.7" height="85.2" rx="10" fill="#d8d3cc" stroke="#7d766d" stroke-width="1.8"/>
<rect x="852.3" y="226.2" width="60.6" height="63.9" rx="10" fill="#d8d3cc" stroke="#7d766d" stroke-width="1.8"/>
<rect x="552.1" y="310.1" width="94.6" height="55.4" rx="12" fill="#d6f0ff" opacity="0.75" stroke="#2f7ea1" stroke-width="2.4"/>
<circle cx="178.4" cy="520.1" r="8" fill="#2f9e44"/>
<circle cx="1026.4" cy="243.2" r="8" fill="#f08c00"/>
<polyline points="175.3,520.8 198.0,516.2 218.9,512.3 238.8,506.8 260.9,502.0 281.9,496.0 299.8,489.5 320.1,483.4 341.5,476.2 358.4,469.4 375.9,460.8 392.5,451.2 408.5,442.1 425.6,432.9 440.0,424.3 455.1,413.9 471.4,404.9 484.0,394.9 500.0,384.4 512.1,374.5 527.2,363.8 542.8,354.6 555.0,343.3 571.0,333.7 584.7,324.9 599.5,315.7 617.1,305.9 631.3,296.0 653.1,290.3 672.2,286.8 694.4,281.8 715.4,276.5 737.6,272.2 758.8,269.5 781.8,268.3 803.6,266.5 828.0,263.5 848.7,262.0 871.4,260.9 894.9,257.8 916.7,255.7 938.7,252.7 961.4,249.5 983.7,247.0 1005.1,245.5 1027.9,242.5" fill="none" stroke="#1d4ed8" stroke-width="6" opacity="0.52" stroke-linecap="round" stroke-linejoin="round" stroke-dasharray="0"/>
<circle cx="1027.9" cy="242.5" r="7" fill="#1d4ed8" opacity="0.9"/>
<text x="90.0" y="172.0" font-family="Trebuchet MS, Avenir Next, sans-serif" font-size="18" fill="#1d4ed8">Clean: success, utility=0.595</text>
<polyline points="178.5,520.6 198.0,518.5 218.7,516.7 240.1,512.2 261.3,511.2 281.7,507.5 303.9,501.9 325.8,498.9 345.4,493.3 365.5,488.4 386.3,484.9 401.1,476.0 418.8,468.3 432.5,458.2 447.5,449.2 466.2,439.7 478.3,431.0 493.4,420.5 505.2,411.9 521.4,400.1 533.4,389.8 543.9,381.0 561.2,370.7 575.6,361.4 587.9,353.0 604.5,344.7 622.4,337.0 641.1,331.8 661.1,326.9 681.4,322.8 700.7,318.9 721.4,314.6 740.6,309.0 760.2,304.3 780.7,297.6 801.0,294.0 821.7,287.7 840.0,283.8 862.8,279.1 884.1,273.5 903.8,268.6 924.9,264.1 945.7,257.5 968.5,252.4 989.5,247.8 895.0,280.7" fill="none" stroke="#d9481c" stroke-width="6" opacity="0.52" stroke-linecap="round" stroke-linejoin="round" stroke-dasharray="12 9"/>
<circle cx="895.0" cy="280.7" r="7" fill="#d9481c" opacity="0.9"/>
<text x="90.0" y="202.0" font-family="Trebuchet MS, Avenir Next, sans-serif" font-size="18" fill="#d9481c">Injected: collision, utility=-0.093</text>
<polyline points="177.4,522.2 198.7,516.1 217.4,511.3 238.0,506.3 257.8,499.9 278.3,492.8 297.0,486.2 317.7,480.1 338.0,473.3 357.0,467.2 371.3,457.4 388.1,448.3 403.7,438.9 420.9,430.8 438.7,420.6 451.2,411.8 467.2,401.4 480.3,390.3 494.4,381.0 508.1,370.5 522.7,359.7 534.9,350.2 550.6,339.0 563.4,328.8 578.6,319.6 597.2,310.8 613.7,302.7 631.6,295.3 650.8,289.8 672.9,284.3 693.4,281.0 714.7,276.8 736.8,272.1 759.4,269.6 782.9,266.4 804.2,265.0 826.8,261.2 850.9,258.8 871.0,257.5 893.6,254.3 918.1,252.6 939.7,250.4 962.3,248.9 984.2,246.8 1005.8,244.9 1030.5,241.7" fill="none" stroke="#2b8a3e" stroke-width="6" opacity="0.52" stroke-linecap="round" stroke-linejoin="round" stroke-dasharray="0"/>
<circle cx="1030.5" cy="241.7" r="7" fill="#2b8a3e" opacity="0.9"/>
<text x="90.0" y="232.0" font-family="Trebuchet MS, Avenir Next, sans-serif" font-size="18" fill="#2b8a3e">Repaired: success, utility=0.595</text>
</svg>