<svg xmlns="http://www.w3.org/2000/svg" width="1320" height="640" viewBox="0 0 1320 640">
<rect x="0" y="0" width="100%" height="100%" fill="#f6f3eb"/>
<text x="62" y="62" font-family="Trebuchet MS, Avenir Next, sans-serif" font-size="30" fill="#1f2933">Shifted Trajectory Density</text>
<text x="62" y="96" font-family="Trebuchet MS, Avenir Next, sans-serif" font-size="18" fill="#5f6b76">The injected policy concentrates trajectory mass in the lower squeeze band; repair shifts it back upward.</text>
<rect x="58.0" y="132.0" width="380.0" height="452.0" rx="30" fill="#fffdf8" stroke="#d6cfc5" stroke-width="2"/>
<rect x="70.0" y="144.0" width="356.0" height="428.0" rx="24" fill="#fbf7ef" stroke="none"/>
<polygon points="217.2,349.9 262.2,354.0 276.5,313.6 259.9,269.1 221.9,277.2 210.1,321.6" fill="#ff9a62" opacity="0.22" stroke="#d85f25" stroke-width="2.5" stroke-dasharray="10 8"/>
<rect x="186.3" y="349.9" width="19.0" height="76.8" rx="10" fill="#d8d3cc" stroke="#7d766d" stroke-width="1.8"/>
<rect x="233.8" y="354.0" width="21.3" height="84.8" rx="10" fill="#d8d3cc" stroke="#7d766d" stroke-width="1.8"/>
<rect x="233.8" y="220.6" width="21.3" height="80.8" rx="10" fill="#d8d3cc" stroke="#7d766d" stroke-width="1.8"/>
<rect x="275.3" y="285.3" width="23.7" height="80.8" rx="10" fill="#d8d3cc" stroke="#7d766d" stroke-width="1.8"/>
<rect x="323.9" y="220.6" width="19.0" height="60.6" rx="10" fill="#d8d3cc" stroke="#7d766d" stroke-width="1.8"/>
<rect x="229.9" y="300.2" width="29.6" height="52.5" rx="12" fill="#d6f0ff" opacity="0.75" stroke="#2f7ea1" stroke-width="2.4"/>
<circle cx="112.8" cy="499.4" r="8" fill="#2f9e44"/>
<circle cx="378.4" cy="236.8" r="8" fill="#f08c00"/>
<rect x="99.4" y="497.0" width="21.4" height="34.5" fill="#1d4ed8" opacity="0.35"/>
<rect x="99.4" y="462.5" width="21.4" height="34.5" fill="#1d4ed8" opacity="0.12"/>
<rect x="120.8" y="462.5" width="21.4" height="34.5" fill="#1d4ed8" opacity="0.51"/>
<rect x="142.1" y="462.5" width="21.4" height="34.5" fill="#1d4ed8" opacity="0.52"/>
<rect x="142.1" y="428.0" width="21.4" height="34.5" fill="#1d4ed8" opacity="0.21"/>
<rect x="163.5" y="428.0" width="21.4" height="34.5" fill="#1d4ed8" opacity="0.62"/>
<rect x="184.9" y="428.0" width="21.4" height="34.5" fill="#1d4ed8" opacity="0.12"/>
<rect x="184.9" y="393.5" width="21.4" height="34.5" fill="#1d4ed8" opacity="0.80"/>
<rect x="184.9" y="359.0" width="21.4" height="34.5" fill="#1d4ed8" opacity="0.20"/>
<rect x="206.2" y="359.0" width="21.4" height="34.5" fill="#1d4ed8" opacity="0.39"/>
<rect x="206.2" y="324.5" width="21.4" height="34.5" fill="#1d4ed8" opacity="0.29"/>
<rect x="227.6" y="324.5" width="21.4" height="34.5" fill="#1d4ed8" opacity="0.29"/>
<rect x="227.6" y="290.0" width="21.4" height="34.5" fill="#1d4ed8" opacity="0.29"/>
<rect x="249.0" y="290.0" width="21.4" height="34.5" fill="#1d4ed8" opacity="0.21"/>
<rect x="249.0" y="255.5" width="21.4" height="34.5" fill="#1d4ed8" opacity="0.38"/>
<rect x="270.4" y="255.5" width="21.4" height="34.5" fill="#1d4ed8" opacity="0.39"/>
<rect x="291.8" y="255.5" width="21.4" height="34.5" fill="#1d4ed8" opacity="0.39"/>
<rect x="313.1" y="255.5" width="21.4" height="34.5" fill="#1d4ed8" opacity="0.30"/>
<rect x="313.1" y="221.0" width="21.4" height="34.5" fill="#1d4ed8" opacity="0.19"/>
<rect x="334.5" y="221.0" width="21.4" height="34.5" fill="#1d4ed8" opacity="0.39"/>
<rect x="355.9" y="221.0" width="21.4" height="34.5" fill="#1d4ed8" opacity="0.39"/>
<rect x="377.2" y="221.0" width="21.4" height="34.5" fill="#1d4ed8" opacity="0.20"/>
<text x="82.0" y="168.0" font-family="Trebuchet MS, Avenir Next, sans-serif" font-size="22" fill="#1d4ed8">Clean</text>
<rect x="474.0" y="132.0" width="380.0" height="452.0" rx="30" fill="#fffdf8" stroke="#d6cfc5" stroke-width="2"/>
<rect x="486.0" y="144.0" width="356.0" height="428.0" rx="24" fill="#fbf7ef" stroke="none"/>
<polygon points="633.2,349.9 678.2,354.0 692.5,313.6 675.9,269.1 637.9,277.2 626.1,321.6" fill="#ff9a62" opacity="0.22" stroke="#d85f25" stroke-width="2.5" stroke-dasharray="10 8"/>
<rect x="602.3" y="349.9" width="19.0" height="76.8" rx="10" fill="#d8d3cc" stroke="#7d766d" stroke-width="1.8"/>
<rect x="649.8" y="354.0" width="21.3" height="84.8" rx="10" fill="#d8d3cc" stroke="#7d766d" stroke-width="1.8"/>
<rect x="649.8" y="220.6" width="21.3" height="80.8" rx="10" fill="#d8d3cc" stroke="#7d766d" stroke-width="1.8"/>
<rect x="691.3" y="285.3" width="23.7" height="80.8" rx="10" fill="#d8d3cc" stroke="#7d766d" stroke-width="1.8"/>
<rect x="739.9" y="220.6" width="19.0" height="60.6" rx="10" fill="#d8d3cc" stroke="#7d766d" stroke-width="1.8"/>
<rect x="645.9" y="300.2" width="29.6" height="52.5" rx="12" fill="#d6f0ff" opacity="0.75" stroke="#2f7ea1" stroke-width="2.4"/>
<circle cx="528.8" cy="499.4" r="8" fill="#2f9e44"/>
<circle cx="794.4" cy="236.8" r="8" fill="#f08c00"/>
<rect x="515.4" y="497.0" width="21.4" height="34.5" fill="#d9481c" opacity="0.29"/>
<rect x="515.4" y="462.5" width="21.4" height="34.5" fill="#d9481c" opacity="0.13"/>
<rect x="536.8" y="497.0" width="21.4" height="34.5" fill="#d9481c" opacity="0.15"/>
<rect x="536.8" y="462.5" width="21.4" height="34.5" fill="#d9481c" opacity="0.39"/>
<rect x="558.1" y="462.5" width="21.4" height="34.5" fill="#d9481c" opacity="0.46"/>
<rect x="558.1" y="428.0" width="21.4" height="34.5" fill="#d9481c" opacity="0.11"/>
<rect x="579.5" y="462.5" width="21.4" height="34.5" fill="#d9481c" opacity="0.25"/>
<rect x="579.5" y="428.0" width="21.4" height="34.5" fill="#d9481c" opacity="0.35"/>
<rect x="600.9" y="428.0" width="21.4" height="34.5" fill="#d9481c" opacity="0.29"/>
<rect x="600.9" y="393.5" width="21.4" height="34.5" fill="#d9481c" opacity="0.80"/>
<rect x="622.2" y="428.0" width="21.4" height="34.5" fill="#d9481c" opacity="0.11"/>
<rect x="622.2" y="393.5" width="21.4" height="34.5" fill="#d9481c" opacity="0.25"/>
<rect x="622.2" y="359.0" width="21.4" height="34.5" fill="#d9481c" opacity="0.16"/>
<rect x="643.6" y="359.0" width="21.4" height="34.5" fill="#d9481c" opacity="0.22"/>
<rect x="643.6" y="324.5" width="21.4" height="34.5" fill="#d9481c" opacity="0.18"/>
<rect x="665.0" y="324.5" width="21.4" height="34.5" fill="#d9481c" opacity="0.20"/>
<rect x="665.0" y="290.0" width="21.4" height="34.5" fill="#d9481c" opacity="0.15"/>
<rect x="686.4" y="324.5" width="21.4" height="34.5" fill="#d9481c" opacity="0.13"/>
<rect x="686.4" y="290.0" width="21.4" height="34.5" fill="#d9481c" opacity="0.25"/>
<rect x="707.8" y="290.0" width="21.4" height="34.5" fill="#d9481c" opacity="0.16"/>
<rect x="707.8" y="255.5" width="21.4" height="34.5" fill="#d9481c" opacity="0.17"/>
<rect x="729.1" y="255.5" width="21.4" height="34.5" fill="#d9481c" opacity="0.26"/>
<rect x="750.5" y="255.5" width="21.4" height="34.5" fill="#d9481c" opacity="0.23"/>
<rect x="750.5" y="221.0" width="21.4" height="34.5" fill="#d9481c" opacity="0.14"/>
<rect x="771.9" y="221.0" width="21.4" height="34.5" fill="#d9481c" opacity="0.22"/>
<rect x="793.2" y="221.0" width="21.4" height="34.5" fill="#d9481c" opacity="0.13"/>
<text x="498.0" y="168.0" font-family="Trebuchet MS, Avenir Next, sans-serif" font-size="22" fill="#d9481c">Injected</text>
<rect x="890.0" y="132.0" width="380.0" height="452.0" rx="30" fill="#fffdf8" stroke="#d6cfc5" stroke-width="2"/>
<rect x="902.0" y="144.0" width="356.0" height="428.0" rx="24" fill="#fbf7ef" stroke="none"/>
<polygon points="1049.2,349.9 1094.2,354.0 1108.5,313.6 1091.9,269.1 1053.9,277.2 1042.1,321.6" fill="#ff9a62" opacity="0.22" stroke="#d85f25" stroke-width="2.5" stroke-dasharray="10 8"/>
<rect x="1018.3" y="349.9" width="19.0" height="76.8" rx="10" fill="#d8d3cc" stroke="#7d766d" stroke-width="1.8"/>
<rect x="1065.8" y="354.0" width="21.3" height="84.8" rx="10" fill="#d8d3cc" stroke="#7d766d" stroke-width="1.8"/>
<rect x="1065.8" y="220.6" width="21.3" height="80.8" rx="10" fill="#d8d3cc" stroke="#7d766d" stroke-width="1.8"/>
<rect x="1107.3" y="285.3" width="23.7" height="80.8" rx="10" fill="#d8d3cc" stroke="#7d766d" stroke-width="1.8"/>
<rect x="1155.9" y="220.6" width="19.0" height="60.6" rx="10" fill="#d8d3cc" stroke="#7d766d" stroke-width="1.8"/>
<rect x="1061.9" y="300.2" width="29.6" height="52.5" rx="12" fill="#d6f0ff" opacity="0.75" stroke="#2f7ea1" stroke-width="2.4"/>
<circle cx="944.8" cy="499.4" r="8" fill="#2f9e44"/>
<circle cx="1210.4" cy="236.8" r="8" fill="#f08c00"/>
<rect x="931.4" y="497.0" width="21.4" height="34.5" fill="#2b8a3e" opacity="0.37"/>
<rect x="952.8" y="462.5" width="21.4" height="34.5" fill="#2b8a3e" opacity="0.60"/>
<rect x="974.1" y="462.5" width="21.4" height="34.5" fill="#2b8a3e" opacity="0.42"/>
<rect x="974.1" y="428.0" width="21.4" height="34.5" fill="#2b8a3e" opacity="0.24"/>
<rect x="995.5" y="428.0" width="21.4" height="34.5" fill="#2b8a3e" opacity="0.53"/>
<rect x="995.5" y="393.5" width="21.4" height="34.5" fill="#2b8a3e" opacity="0.21"/>
<rect x="1016.9" y="393.5" width="21.4" height="34.5" fill="#2b8a3e" opacity="0.51"/>
<rect x="1016.9" y="359.0" width="21.4" height="34.5" fill="#2b8a3e" opacity="0.26"/>
<rect x="1038.2" y="359.0" width="21.4" height="34.5" fill="#2b8a3e" opacity="0.48"/>
<rect x="1038.2" y="324.5" width="21.4" height="34.5" fill="#2b8a3e" opacity="0.37"/>
<rect x="1059.6" y="324.5" width="21.4" height="34.5" fill="#2b8a3e" opacity="0.26"/>
<rect x="1059.6" y="290.0" width="21.4" height="34.5" fill="#2b8a3e" opacity="0.48"/>
<rect x="1081.0" y="290.0" width="21.4" height="34.5" fill="#2b8a3e" opacity="0.24"/>
<rect x="1081.0" y="255.5" width="21.4" height="34.5" fill="#2b8a3e" opacity="0.51"/>
<rect x="1102.4" y="255.5" width="21.4" height="34.5" fill="#2b8a3e" opacity="0.80"/>
<rect x="1123.8" y="255.5" width="21.4" height="34.5" fill="#2b8a3e" opacity="0.44"/>
<rect x="1145.1" y="255.5" width="21.4" height="34.5" fill="#2b8a3e" opacity="0.21"/>
<rect x="1145.1" y="221.0" width="21.4" height="34.5" fill="#2b8a3e" opacity="0.33"/>
<rect x="1166.5" y="221.0" width="21.4" height="34.5" fill="#2b8a3e" opacity="0.44"/>
<rect x="1187.9" y="221.0" width="21.4" height="34.5" fill="#2b8a3e" opacity="0.44"/>
<rect x="1209.2" y="221.0" width="21.4" height="34.5" fill="#2b8a3e" opacity="0.21"/>
<text x="914.0" y="168.0" font-family="Trebuchet MS, Avenir Next, sans-serif" font-size="22" fill="#2b8a3e">Repaired</text>
</svg>